HIERARCHY
ROOT Hips
{
	OFFSET 0.000000 0.000000 0.000000
	CHANNELS 6 Xposition Yposition Zposition Xrotation Yrotation Zrotation
	JOINT LeftUpLeg_virtual
	{
		OFFSET 0.000000 0.000000 0.000000
		CHANNELS 3 Xrotation Yrotation Zrotation
		JOINT LeftUpLeg
		{
			OFFSET 15.427100 -6.655098 0.678600
			CHANNELS 3 Xrotation Yrotation Zrotation
			JOINT LeftLeg
			{
				OFFSET 4.081073 -39.591068 13.024000
				CHANNELS 3 Xrotation Yrotation Zrotation
				JOINT LeftFoot
				{
					OFFSET -4.081074 -37.707932 -15.979700
					CHANNELS 3 Xrotation Yrotation Zrotation
					JOINT LeftToeBase
					{
						OFFSET 5.346399 -15.068900 20.645000
						CHANNELS 3 Xrotation Yrotation Zrotation
						JOINT LeftToe_End
						{
							OFFSET 2.754700 0.931300 11.300900
							CHANNELS 3 Xrotation Yrotation Zrotation
							End Site
							{
								OFFSET 0 0 0
							}
						}
					}
				}
			}
		}
	}
	JOINT RightUpLeg_virtual
	{
		OFFSET 0.000000 0.000000 0.000000
		CHANNELS 3 Xrotation Yrotation Zrotation
		JOINT RightUpLeg
		{
			OFFSET -15.569500 -6.655098 0.678600
			CHANNELS 3 Xrotation Yrotation Zrotation
			JOINT RightLeg
			{
				OFFSET -4.081825 -39.591045 13.023800
				CHANNELS 3 Xrotation Yrotation Zrotation
				JOINT RightFoot
				{
					OFFSET 4.081824 -37.707954 -15.979600
					CHANNELS 3 Xrotation Yrotation Zrotation
					JOINT RightToeBase
					{
						OFFSET -5.346400 -15.068900 20.645000
						CHANNELS 3 Xrotation Yrotation Zrotation
						JOINT RightToe_End
						{
							OFFSET -2.754700 0.931300 11.300900
							CHANNELS 3 Xrotation Yrotation Zrotation
							End Site
							{
								OFFSET 0 0 0
							}
						}
					}
				}
			}
		}
	}
	JOINT Spine_virtual
	{
		OFFSET 0.000000 0.000000 0.000000
		CHANNELS 3 Xrotation Yrotation Zrotation
		JOINT Spine
		{
			OFFSET -0.279200 12.230698 -2.892100
			CHANNELS 3 Xrotation Yrotation Zrotation
			JOINT Spine1
			{
				OFFSET -0.232667 10.192268 -1.242267
				CHANNELS 3 Xrotation Yrotation Zrotation
				JOINT Spine1_split
				{
					OFFSET -0.232667 10.192268 -1.242267
					CHANNELS 3 Xrotation Yrotation Zrotation
					JOINT Spine2
					{
						OFFSET -0.232667 10.192268 -1.242267
						CHANNELS 3 Xrotation Yrotation Zrotation
						JOINT Neck_virtual
						{
							OFFSET 0.000000 0.000000 0.000000
							CHANNELS 3 Xrotation Yrotation Zrotation
							JOINT Neck
							{
								OFFSET -0.418800 17.814194 8.416900
								CHANNELS 3 Xrotation Yrotation Zrotation
								JOINT Head
								{
									OFFSET 0.000000 7.031097 3.806800
									CHANNELS 3 Xrotation Yrotation Zrotation
									JOINT HeadTop_End
									{
										OFFSET 0.000000 24.646606 12.978600
										CHANNELS 3 Xrotation Yrotation Zrotation
										End Site
										{
											OFFSET 0 0 0
										}
									}
								}
							}
						}
						JOINT LeftShoulder_virtual
						{
							OFFSET 0.000000 0.000000 0.000000
							CHANNELS 3 Xrotation Yrotation Zrotation
							JOINT LeftShoulder
							{
								OFFSET 8.476499 7.247704 -3.868750
								CHANNELS 3 Xrotation Yrotation Zrotation
								JOINT LeftShoulder_split
								{
									OFFSET 8.476499 7.247704 -3.868750
									CHANNELS 3 Xrotation Yrotation Zrotation
									JOINT LeftArm
									{
										OFFSET 9.308998 -2.777710 0.208600
										CHANNELS 3 Xrotation Yrotation Zrotation
										JOINT LeftForeArm
										{
											OFFSET 29.972298 0.000000 0.000000
											CHANNELS 3 Xrotation Yrotation Zrotation
											JOINT LeftHand
											{
												OFFSET 26.026505 0.000000 0.000000
												CHANNELS 3 Xrotation Yrotation Zrotation
												End Site
												{
													OFFSET 0 0 0
												}
											}
										}
									}
								}
							}
						}
						JOINT RightShoulder_virtual
						{
							OFFSET 0.000000 0.000000 0.000000
							CHANNELS 3 Xrotation Yrotation Zrotation
							JOINT RightShoulder
							{
								OFFSET -7.570500 7.247704 -3.868750
								CHANNELS 3 Xrotation Yrotation Zrotation
								JOINT RightShoulder_split
								{
									OFFSET -7.570500 7.247704 -3.868750
									CHANNELS 3 Xrotation Yrotation Zrotation
									JOINT RightArm
									{
										OFFSET -9.308998 -2.777710 0.208500
										CHANNELS 3 Xrotation Yrotation Zrotation
										JOINT RightForeArm
										{
											OFFSET -29.972300 0.000000 0.000000
											CHANNELS 3 Xrotation Yrotation Zrotation
											JOINT RightHand
											{
												OFFSET -26.026505 0.000000 0.000000
												CHANNELS 3 Xrotation Yrotation Zrotation
												End Site
												{
													OFFSET 0 0 0
												}
											}
										}
									}
								}
							}
						}
					}
				}
			}
		}
	}
}
MOTION
Frames: 9
Frame Time: 0.03333333
4.023433 72.248291 -13.657188 0.000000 0.000000 0.000000 4.608689 -47.186358 5.849954 -47.426211 3.954701 26.859162 45.381454 -11.873631 1.749222 1.875348 -3.351922 -23.390990 -2.770786 -4.362975 1.250883 0.000000 0.000000 0.000000 3.165142 -45.452546 4.941213 -35.558559 -24.278539 -42.850455 49.673828 23.299679 -3.950132 -18.190356 -17.365589 30.831699 5.860523 6.692593 -15.202422 0.000000 0.000000 0.000000 1.202413 -36.420717 3.801585 10.580542 13.129899 -0.227957 5.746180 -3.051762 -3.332722 0.068638 -0.882961 0.102669 0.000000 0.000000 0.000000 5.922853 0.899858 -2.189213 8.475618 22.974945 8.246593 -25.472439 15.025719 -16.788499 0.000000 0.000000 0.000000 5.120755 -2.138750 -4.112332 2.890301 -10.567985 -17.915735 -1.428161 -4.589410 -2.417438 -28.852778 -39.512009 -12.720426 29.836534 -51.425088 23.859577 0.000000 0.000000 0.000000 3.980625 -1.806772 -2.526409 -1.010681 29.648755 -16.848618 -3.210008 -18.916829 -5.413437 -56.931987 27.917054 26.830545 -70.655343 78.530093 77.033244 0.000000 0.000000 0.000000 
4.059857 72.114021 -14.337357 0.000000 0.000000 0.000000 5.295008 -48.036198 6.831056 -47.186109 4.445097 27.407015 44.815214 -11.968419 1.537886 1.711952 -2.090173 -23.870118 -2.021909 -4.186975 0.736636 0.000000 0.000000 0.000000 3.860120 -45.767359 5.816133 -36.651864 -22.820021 -42.491648 50.357134 23.070091 -3.978946 -18.474847 -16.484759 30.116633 6.738763 6.285419 -15.537934 0.000000 0.000000 0.000000 1.976116 -37.318057 4.779640 11.253025 14.130207 -1.063435 5.979081 -2.641742 -3.512494 -0.034381 -1.035860 -0.038987 0.000000 0.000000 0.000000 5.487441 1.420244 -2.382895 11.485655 25.475173 4.197183 -25.575751 16.370715 -12.990043 0.000000 0.000000 0.000000 5.770037 -1.977400 -4.317294 2.975630 -11.090803 -18.623708 -2.589422 -4.384292 -2.412061 -34.292560 -43.941254 -17.328306 29.615830 -52.370428 24.510627 0.000000 0.000000 0.000000 4.470090 -1.362445 -2.321315 -0.224985 29.959860 -11.338472 2.187486 -18.754122 -2.842459 -48.388164 33.548523 28.733175 -109.828130 76.227548 112.474610 0.000000 0.000000 0.000000 
4.014249 72.287590 -15.056702 0.000000 0.000000 0.000000 6.237988 -49.034963 7.635235 -46.578540 5.328591 28.529222 43.936097 -12.286142 1.243621 1.115810 -0.400742 -24.279678 -1.055059 -4.048846 0.281179 0.000000 0.000000 0.000000 4.787322 -46.458445 6.521638 -37.463393 -20.858892 -41.402606 50.135460 22.795022 -3.798895 -17.961097 -15.459247 29.462977 7.275397 5.824459 -15.400067 0.000000 0.000000 0.000000 3.043103 -38.809425 5.610735 11.578884 14.250810 -1.883932 6.060801 -2.275814 -3.497709 -0.037848 -1.069056 -0.097398 0.000000 0.000000 0.000000 4.875205 1.776931 -2.445079 13.189425 27.328967 0.360657 -25.348703 18.638341 -11.172468 0.000000 0.000000 0.000000 6.295948 -1.836094 -4.166988 2.949923 -11.616058 -18.806154 -4.041297 -5.058539 -1.915288 -39.235325 -45.539740 -20.862879 28.742812 -53.335694 23.937142 0.000000 0.000000 0.000000 4.864938 -1.011890 -2.097316 0.204844 29.247560 -7.753474 6.084858 -14.979015 0.327235 -38.774352 39.293901 26.217346 -120.786554 73.508374 119.661226 0.000000 0.000000 0.000000 
3.956351 72.882942 -15.592823 0.000000 0.000000 0.000000 7.264219 -50.464829 8.195424 -45.457440 6.688510 30.083210 42.781204 -12.806180 0.884559 0.394312 1.519377 -24.595663 -0.645444 -3.988522 -0.074843 0.000000 0.000000 0.000000 5.886024 -47.801670 7.021355 -38.042241 -18.611308 -39.747186 48.865438 22.543239 -3.342093 -16.260338 -14.169385 29.158624 7.033986 5.388256 -14.803537 0.000000 0.000000 0.000000 4.349676 -40.850716 6.260713 11.558003 13.657106 -2.609918 6.037609 -1.941955 -3.299392 0.035193 -0.961385 -0.062737 0.000000 0.000000 0.000000 4.287580 1.974240 -2.315760 12.866871 28.353404 -2.492558 -25.816575 20.394151 -11.227131 0.000000 0.000000 0.000000 6.662637 -1.668682 -3.608157 2.859372 -11.916315 -18.186359 -5.731464 -6.106654 -1.477972 -42.723725 -44.573285 -21.537699 27.197803 -54.796395 22.224884 0.000000 0.000000 0.000000 5.084974 -0.770021 -1.832570 0.471778 28.069067 -6.262126 6.154539 -10.835394 3.609859 -29.481965 45.599186 20.161918 -114.099458 73.511489 109.586376 0.000000 0.000000 0.000000 
3.958349 73.938751 -15.876373 0.000000 0.000000 0.000000 8.387905 -52.636170 8.569338 -43.713788 8.698472 31.791351 41.351700 -13.340994 0.501292 -0.383294 3.716037 -24.533502 -0.787939 -4.011641 -0.456378 0.000000 0.000000 0.000000 6.983390 -50.140764 7.335423 -38.312669 -16.397988 -37.644263 46.420841 22.218006 -2.547075 -13.656438 -12.634312 28.868460 6.534627 4.955660 -13.852870 0.000000 0.000000 0.000000 5.751910 -43.456686 6.746884 11.262938 12.550968 -3.250893 6.012747 -1.644181 -2.994607 0.133475 -0.730440 -0.012247 0.000000 0.000000 0.000000 3.961237 2.056372 -2.023041 10.552164 28.472294 -3.995440 -27.443014 21.014969 -12.604701 0.000000 0.000000 0.000000 6.845080 -1.433637 -2.797630 2.761041 -11.951946 -16.540649 -7.178980 -6.997925 -0.985291 -44.177305 -41.385113 -18.584931 25.197813 -57.138876 19.803719 0.000000 0.000000 0.000000 5.023722 -0.639654 -1.518185 0.473884 26.553373 -6.376443 2.598890 -8.374998 6.830223 -21.295381 52.345426 11.976653 -98.676706 74.025768 91.673494 0.000000 0.000000 0.000000 
4.008779 75.406158 -15.847763 0.000000 0.000000 0.000000 9.552382 -55.473656 8.905783 -41.397148 11.333815 33.459656 39.688020 -13.823086 0.146526 -1.116330 6.088745 -24.235041 -1.145997 -4.067089 -0.997456 0.000000 0.000000 0.000000 8.053014 -53.446661 7.609177 -38.276489 -14.375366 -35.326961 42.828872 21.703730 -1.439330 -10.724917 -10.964455 28.193559 6.462780 4.519701 -12.724519 0.000000 0.000000 0.000000 6.936213 -46.582013 7.002895 10.780748 11.109294 -3.895113 6.018978 -1.355971 -2.712134 0.178099 -0.537466 0.010720 0.000000 0.000000 0.000000 4.089455 2.091451 -1.669254 6.567323 27.659768 -4.086009 -30.131096 20.008105 -14.701463 0.000000 0.000000 0.000000 6.856405 -1.128554 -1.961551 2.673724 -11.733387 -14.056583 -8.319801 -7.655512 0.066137 -44.225000 -36.073685 -12.926061 23.402395 -59.865952 17.452755 0.000000 0.000000 0.000000 4.749090 -0.588574 -1.214779 0.064179 24.675617 -7.340842 -2.227732 -7.607229 8.993734 -14.728364 58.399996 3.671442 -88.412414 74.282337 80.411694 0.000000 0.000000 0.000000 
4.053827 77.136124 -15.574947 0.000000 0.000000 0.000000 10.716030 -58.798148 9.363464 -38.581297 14.555405 34.828692 37.719436 -14.336123 -0.121302 -1.728947 8.541314 -23.999123 -1.502977 -4.133832 -1.565649 0.000000 0.000000 0.000000 9.152471 -57.320204 8.032507 -37.969657 -12.632876 -33.083705 38.542979 20.943254 -0.149562 -7.621051 -9.182518 27.391106 6.664089 4.193045 -11.648728 0.000000 0.000000 0.000000 7.886525 -49.847605 7.099842 10.268086 9.458818 -4.630238 6.066343 -1.063547 -2.575911 0.236999 -0.348148 0.017443 0.000000 0.000000 0.000000 4.569727 2.160851 -1.368177 1.462290 26.045702 -2.902560 -33.569949 17.527549 -16.968507 0.000000 0.000000 0.000000 6.751516 -0.759966 -1.336583 2.554502 -11.251920 -10.943287 -9.277744 -7.844430 1.061645 -43.531917 -29.381155 -6.292630 22.361788 -61.606018 16.003027 0.000000 0.000000 0.000000 4.416004 -0.541818 -1.002962 -0.740560 22.777412 -8.117112 -6.328600 -8.245835 9.575433 -10.570595 63.100388 -2.136173 -90.935206 75.709054 83.862982 0.000000 0.000000 0.000000 
4.057585 78.939766 -15.184193 0.000000 0.000000 0.000000 12.186149 -62.179324 10.241397 -35.564033 18.117712 35.753708 35.493737 -14.958621 -0.293656 -2.293461 10.931033 -23.981098 -1.517755 -4.212054 -2.102368 0.000000 0.000000 0.000000 10.475109 -61.338029 8.847118 -37.543313 -11.080557 -31.120043 34.133935 20.091514 1.202327 -4.187158 -7.209924 27.042601 6.727985 4.059176 -10.867817 0.000000 0.000000 0.000000 8.509545 -52.876128 7.083671 9.841117 7.596487 -5.483278 6.141106 -0.728277 -2.586710 0.318467 -0.189763 -0.013142 0.000000 0.000000 0.000000 5.173939 2.312302 -1.236849 -3.842602 23.815813 -0.838015 -36.983115 14.517292 -19.030179 0.000000 0.000000 0.000000 6.670998 -0.345487 -1.038281 2.458521 -10.542088 -7.448086 -9.606752 -7.712273 2.221938 -42.305379 -22.845898 -0.244225 22.783073 -60.819836 16.022645 0.000000 0.000000 0.000000 4.245799 -0.379960 -0.876039 -2.033746 20.956977 -7.961611 -8.880807 -8.718416 8.867579 -9.269397 66.096396 -4.018235 -107.248402 77.842723 102.821176 0.000000 0.000000 0.000000 
3.982294 80.604668 -14.849564 0.000000 0.000000 0.000000 13.840574 -65.092925 11.484126 -32.767290 21.629710 36.322745 33.123149 -15.754176 -0.419588 -2.778096 12.941334 -24.327544 -1.329667 -4.305834 -2.435570 0.000000 0.000000 0.000000 12.164790 -64.746867 10.123922 -37.067744 -9.653469 -29.546787 30.099561 19.341783 2.461903 -0.889565 -5.046005 27.285941 6.854173 4.128270 -10.478760 0.000000 0.000000 0.000000 8.873578 -55.496383 6.934053 9.514673 5.561923 -6.436231 6.162942 -0.294448 -2.661582 0.353465 0.024649 -0.068248 0.000000 0.000000 0.000000 5.669217 2.616813 -1.254218 -8.336504 21.225494 1.586514 -39.748453 11.522841 -20.508913 0.000000 0.000000 0.000000 6.580182 0.078781 -1.017196 2.338550 -9.460662 -3.977579 -9.874546 -7.676358 4.024044 -41.162760 -17.499354 4.164899 24.639687 -56.790598 17.357083 0.000000 0.000000 0.000000 4.221518 -0.016557 -0.744790 -3.607405 19.370090 -6.917950 -11.349322 -8.954555 6.746273 -10.942919 67.156442 -1.928123 -135.539913 78.127310 134.847045 0.000000 0.000000 0.000000 
